<svg width="190" height="182" viewBox="0 0 190 182" fill="none" xmlns="http://www.w3.org/2000/svg">
<rect width="190" height="182" fill="#F71D1D"/>
<path d="M80.4222 69.5514L37.829 45.9915V122.204L80.4222 134.514V69.5514Z" fill="white"/>
<path d="M85.1081 69.7062V134.541L127.977 122.195V45.9938L85.1081 69.7062Z" fill="white"/>
<path d="M161.414 44.0623C161.429 43.4197 161.31 42.7808 161.063 42.183C160.816 41.5852 160.447 41.0406 159.978 40.5812C159.509 40.1218 158.948 39.7568 158.33 39.5076C157.711 39.2584 157.047 39.13 156.376 39.13C155.705 39.13 155.041 39.2584 154.422 39.5076C153.804 39.7568 153.243 40.1218 152.774 40.5812C152.305 41.0406 151.936 41.5852 151.689 42.183C151.442 42.7808 151.323 43.4197 151.337 44.0623V49.2607H161.414V44.0623Z" fill="white"/>
<path d="M152.589 120.853H151.337L156.379 137.724L161.412 120.853H160.16H161.412V53.0463H160.16H158.909H157.584H155.076H153.838H152.589H151.335V120.853H152.589Z" fill="white"/>
<path d="M137.128 49.2653L132.561 45.8095V124.272L85.234 138.921H83.0442H82.6096H80.4222L33.307 126.31V45.8095L28.7375 49.2653V129.379L80.2061 143.029H82.6096H83.0442H85.4477L132.933 128.588L137.128 127.405V49.2653Z" fill="white"/>
</svg>
