<svg width="192" height="48" viewBox="0 0 192 48" fill="none" xmlns="http://www.w3.org/2000/svg">
<path d="M9.31523 35C8.42723 35 7.98323 34.556 7.98323 33.668V12.32C7.98323 11.432 8.42723 10.988 9.31523 10.988C10.1912 10.988 10.6292 11.432 10.6292 12.32V21.464L20.3132 11.492C20.9252 10.844 21.5432 10.832 22.1672 11.456C22.8152 12.068 22.8272 12.692 22.2032 13.328L14.4092 21.356L23.5892 32.75C24.1292 33.446 24.0692 34.064 23.4092 34.604C22.7252 35.168 22.1072 35.108 21.5552 34.424L12.5552 23.282L10.6292 25.262V33.668C10.6292 34.556 10.1912 35 9.31523 35ZM30.0223 35C29.1343 35 28.6903 34.556 28.6903 33.668V18.476C28.6903 17.6 29.1343 17.162 30.0223 17.162C30.8983 17.162 31.3363 17.6 31.3363 18.476V19.448C32.5603 17.924 34.4983 17.162 37.1503 17.162H38.1583C40.4983 17.162 42.2263 17.72 43.3423 18.836C44.4583 19.952 45.0163 21.68 45.0163 24.02V33.668C45.0163 34.556 44.5783 35 43.7023 35C42.8143 35 42.3703 34.556 42.3703 33.668V24.02C42.3703 22.4 42.0643 21.296 41.4523 20.708C40.8523 20.108 39.7543 19.808 38.1583 19.808H37.1503C35.5663 19.808 34.2403 20.018 33.1723 20.438C32.1043 20.846 31.4923 21.494 31.3363 22.382V33.668C31.3363 34.556 30.8983 35 30.0223 35ZM98.1129 35C97.3929 35 96.9189 34.64 96.6909 33.92L91.6509 18.908C91.3749 18.092 91.6569 17.54 92.4969 17.252C93.3249 16.976 93.8829 17.258 94.1709 18.098L98.5269 31.004H98.1129L102.235 18.188C102.475 17.492 102.979 17.144 103.747 17.144C104.491 17.144 104.965 17.51 105.169 18.242L109.039 30.896H108.679L113.179 18.08C113.491 17.228 114.055 16.952 114.871 17.252C115.711 17.552 115.975 18.122 115.663 18.962L110.173 33.92C109.909 34.64 109.405 35 108.661 35C107.893 35 107.401 34.634 107.185 33.902L103.351 21.284H103.729L99.5349 33.92C99.4269 34.292 99.2469 34.568 98.9949 34.748C98.7429 34.916 98.4489 35 98.1129 35ZM127.97 35C125.654 35 123.95 34.454 122.858 33.362C121.766 32.27 121.22 30.572 121.22 28.268V19.808H119.33C118.442 19.808 117.998 19.364 117.998 18.476C117.998 17.6 118.442 17.162 119.33 17.162H121.22V14.12C121.22 13.232 121.658 12.788 122.534 12.788C123.422 12.788 123.866 13.232 123.866 14.12V17.162H128.132C129.008 17.162 129.446 17.6 129.446 18.476C129.446 19.364 129.008 19.808 128.132 19.808H123.866V28.268C123.866 29.852 124.154 30.932 124.73 31.508C125.318 32.072 126.398 32.354 127.97 32.354C128.402 32.354 128.732 32.462 128.96 32.678C129.188 32.882 129.302 33.212 129.302 33.668C129.302 34.556 128.858 35 127.97 35ZM135.743 14.102C134.711 14.102 134.195 13.574 134.195 12.518V11.546C134.195 10.514 134.711 9.998 135.743 9.998H136.715C137.711 9.998 138.209 10.514 138.209 11.546V12.518C138.209 13.574 137.711 14.102 136.715 14.102H135.743ZM136.229 35C135.341 35 134.897 34.556 134.897 33.668V18.476C134.897 17.6 135.341 17.162 136.229 17.162C137.105 17.162 137.543 17.6 137.543 18.476V33.668C137.543 34.556 137.105 35 136.229 35ZM146.666 35C145.778 35 145.334 34.556 145.334 33.668V19.808H143.948C143.06 19.808 142.616 19.364 142.616 18.476C142.616 17.6 143.06 17.162 143.948 17.162H145.334V16.532C145.334 14.228 145.886 12.53 146.99 11.438C148.094 10.334 149.798 9.782 152.102 9.782C152.882 9.782 153.272 10.22 153.272 11.096C153.272 11.984 152.882 12.428 152.102 12.428C150.53 12.428 149.45 12.716 148.862 13.292C148.274 13.868 147.98 14.948 147.98 16.532V17.162H151.94C152.828 17.162 153.272 17.6 153.272 18.476C153.272 19.364 152.828 19.808 151.94 19.808H147.98V33.668C147.98 34.556 147.542 35 146.666 35ZM156.627 34.874C155.787 34.538 155.535 33.956 155.871 33.128L164.565 12.032C164.865 11.336 165.357 10.988 166.041 10.988H166.131C166.815 11.024 167.283 11.372 167.535 12.032L176.319 33.128C176.655 33.956 176.415 34.538 175.599 34.874C174.771 35.198 174.195 34.958 173.871 34.154L171.765 29.114H160.371L158.337 34.154C158.001 34.97 157.431 35.21 156.627 34.874ZM161.415 26.468H170.685L165.987 15.182L161.415 26.468ZM182.706 35C182.262 35 181.926 34.892 181.698 34.676C181.482 34.448 181.374 34.112 181.374 33.668V12.338C181.374 11.882 181.482 11.546 181.698 11.33C181.926 11.114 182.262 11.006 182.706 11.006C183.15 11.006 183.48 11.114 183.696 11.33C183.912 11.546 184.02 11.882 184.02 12.338V33.668C184.02 34.112 183.912 34.448 183.696 34.676C183.48 34.892 183.15 35 182.706 35Z" fill="white"/>
<path fill-rule="evenodd" clip-rule="evenodd" d="M69 45C80.598 45 90 35.598 90 24C90 12.402 80.598 3 69 3C57.402 3 48 12.402 48 24C48 35.598 57.402 45 69 45ZM84.6485 19.609V17.4675C84.6485 11.8949 77.6961 7.22929 69.151 7.06746C64.7465 7.00348 60.6558 7.99079 57.5283 9.89767C55.9865 10.8302 54.7615 11.9491 53.9272 13.1869C53.0929 14.4248 52.6667 15.7559 52.6743 17.0999V19.609C50.47 19.609 48.6775 20.7343 48.6775 22.118V27.1361C48.6775 28.5199 50.47 29.6452 52.6743 29.6452H56.4286C56.536 31.2933 57.223 32.8521 58.3705 34.0274C59.6234 35.3106 61.3227 36.0316 63.0945 36.0316C63.3284 36.0202 63.5622 36.0087 63.796 35.9745L67.0919 39.3502L68.6619 40.9354L70.2319 39.3502L73.5277 35.9745C73.7616 36.0087 73.9954 36.0202 74.2292 36.0316C76.0011 36.0316 77.7004 35.3106 78.9533 34.0274C80.1008 32.8521 80.7877 31.2933 80.8952 29.6452H84.6485C86.8527 29.6452 88.6452 28.5199 88.6452 27.1361V22.118C88.6452 20.7343 86.8527 19.609 84.6485 19.609ZM56.671 17.0999V27.3255C56.7647 26.9916 56.8834 26.6626 57.0261 26.3378L57.1174 26.1209C58.4036 23.0668 59.7088 19.9678 57.7944 15.8458C60.734 18.1951 64.9206 20.054 68.6619 20.0654C72.4031 20.054 76.5898 18.1951 79.5294 15.8458C77.615 19.9678 78.9201 23.0668 80.2063 26.1209L80.2976 26.3378C80.4398 26.6614 80.5581 26.9892 80.6517 27.3218V17.4675C80.6517 13.2372 75.4399 9.69695 69.0291 9.57651C67.4232 9.5438 65.8233 9.71481 64.3251 10.0793C62.827 10.4438 61.4614 10.9944 60.3101 11.6979C59.1539 12.3974 58.2354 13.2367 57.61 14.1651C56.9846 15.0936 56.6651 16.0919 56.671 17.0999ZM68.6619 32.9524C69.2854 33.9103 70.1205 34.6972 71.1115 35.2332L68.6619 37.7422L66.2122 35.2332C67.2032 34.6972 68.0495 33.9103 68.6619 32.9524ZM74.2292 27.4783C73.6386 27.4783 73.0722 27.7186 72.6545 28.1463C72.2369 28.5741 72.0023 29.1542 72.0023 29.7592C72.0023 30.3641 72.2369 30.9442 72.6545 31.372C73.0722 31.7997 73.6386 32.04 74.2292 32.04C74.8199 32.04 75.3863 31.7997 75.8039 31.372C76.2215 30.9442 76.4562 30.3641 76.4562 29.7592C76.4562 29.1542 76.2215 28.5741 75.8039 28.1463C75.3863 27.7186 74.8199 27.4783 74.2292 27.4783ZM63.0945 27.4783C62.5039 27.4783 61.9375 27.7186 61.5198 28.1463C61.1022 28.5741 60.8676 29.1542 60.8676 29.7592C60.8676 30.3641 61.1022 30.9442 61.5198 31.372C61.9375 31.7997 62.5039 32.04 63.0945 32.04C63.6851 32.04 64.2516 31.7997 64.6692 31.372C65.0868 30.9442 65.3215 30.3641 65.3215 29.7592C65.3215 29.1542 65.0868 28.5741 64.6692 28.1463C64.2516 27.7186 63.6851 27.4783 63.0945 27.4783ZM74.2292 24.6272C75.4105 24.6272 76.5433 25.1078 77.3786 25.9633C78.2139 26.8188 78.6831 27.9791 78.6831 29.1889C78.6831 30.3988 78.2139 31.5591 77.3786 32.4146C76.5433 33.2701 75.4105 33.7507 74.2292 33.7507C73.048 33.7507 71.9151 33.2701 71.0799 32.4146C70.2446 31.5591 69.7753 30.3988 69.7753 29.1889C69.7753 27.9791 70.2446 26.8188 71.0799 25.9633C71.9151 25.1078 73.048 24.6272 74.2292 24.6272ZM63.0945 24.6272C64.2758 24.6272 65.4086 25.1078 66.2439 25.9633C67.0792 26.8188 67.5484 27.9791 67.5484 29.1889C67.5484 30.3988 67.0792 31.5591 66.2439 32.4146C65.4086 33.2701 64.2758 33.7507 63.0945 33.7507C61.9133 33.7507 60.7804 33.2701 59.9452 32.4146C59.1099 31.5591 58.6406 30.3988 58.6406 29.1889C58.6406 27.9791 59.1099 26.8188 59.9452 25.9633C60.7804 25.1078 61.9133 24.6272 63.0945 24.6272Z" fill="white"/>
</svg>
