<svg width="570" height="145" viewBox="0 0 570 145" fill="none" xmlns="http://www.w3.org/2000/svg">
<path d="M17.722 107C14.984 107 13.615 105.631 13.615 102.893V37.07C13.615 34.332 14.984 32.963 17.722 32.963C20.423 32.963 21.7735 34.332 21.7735 37.07V65.264L51.6325 34.517C53.5195 32.519 55.425 32.482 57.349 34.406C59.347 36.293 59.384 38.217 57.46 40.178L33.4285 64.931L61.7335 100.062C63.3985 102.208 63.2135 104.114 61.1785 105.779C59.0695 107.518 57.164 107.333 55.462 105.224L27.712 70.8695L21.7735 76.9745V102.893C21.7735 105.631 20.423 107 17.722 107ZM81.5687 107C78.8307 107 77.4617 105.631 77.4617 102.893V56.051C77.4617 53.35 78.8307 51.9995 81.5687 51.9995C84.2697 51.9995 85.6202 53.35 85.6202 56.051V59.048C89.3942 54.349 95.3697 51.9995 103.547 51.9995H106.655C113.87 51.9995 119.198 53.72 122.639 57.161C126.08 60.602 127.8 65.93 127.8 73.145V102.893C127.8 105.631 126.45 107 123.749 107C121.011 107 119.642 105.631 119.642 102.893V73.145C119.642 68.15 118.698 64.746 116.811 62.933C114.961 61.083 111.576 60.158 106.655 60.158H103.547C98.6627 60.158 94.5742 60.8055 91.2812 62.1005C87.9882 63.3585 86.1012 65.3565 85.6202 68.0945V102.893C85.6202 105.631 84.2697 107 81.5687 107ZM291.515 107C289.295 107 287.833 105.89 287.13 103.67L271.59 57.383C270.739 54.867 271.609 53.165 274.199 52.277C276.752 51.426 278.472 52.2955 279.36 54.8855L292.791 94.679H291.515L304.224 55.163C304.964 53.017 306.518 51.944 308.886 51.944C311.18 51.944 312.642 53.0725 313.271 55.3295L325.203 94.346H324.093L337.968 54.83C338.93 52.203 340.669 51.352 343.185 52.277C345.775 53.202 346.589 54.9595 345.627 57.5495L328.7 103.67C327.886 105.89 326.332 107 324.038 107C321.67 107 320.153 105.871 319.487 103.614L307.665 64.709H308.831L295.899 103.67C295.566 104.817 295.011 105.668 294.234 106.223C293.457 106.741 292.551 107 291.515 107ZM383.575 107C376.434 107 371.18 105.316 367.813 101.949C364.446 98.5825 362.763 93.347 362.763 86.243V60.158H356.935C354.197 60.158 352.828 58.789 352.828 56.051C352.828 53.35 354.197 51.9995 356.935 51.9995H362.763V42.62C362.763 39.882 364.113 38.513 366.814 38.513C369.552 38.513 370.921 39.882 370.921 42.62V51.9995H384.075C386.776 51.9995 388.126 53.35 388.126 56.051C388.126 58.789 386.776 60.158 384.075 60.158H370.921V86.243C370.921 91.127 371.809 94.457 373.585 96.233C375.398 97.972 378.728 98.8415 383.575 98.8415C384.907 98.8415 385.925 99.1745 386.628 99.8405C387.331 100.469 387.682 101.487 387.682 102.893C387.682 105.631 386.313 107 383.575 107ZM407.542 42.5645C404.36 42.5645 402.769 40.9365 402.769 37.6805V34.6835C402.769 31.5015 404.36 29.9105 407.542 29.9105H410.539C413.61 29.9105 415.145 31.5015 415.145 34.6835V37.6805C415.145 40.9365 413.61 42.5645 410.539 42.5645H407.542ZM409.04 107C406.302 107 404.933 105.631 404.933 102.893V56.051C404.933 53.35 406.302 51.9995 409.04 51.9995C411.741 51.9995 413.092 53.35 413.092 56.051V102.893C413.092 105.631 411.741 107 409.04 107ZM441.221 107C438.483 107 437.114 105.631 437.114 102.893V60.158H432.84C430.102 60.158 428.733 58.789 428.733 56.051C428.733 53.35 430.102 51.9995 432.84 51.9995H437.114V50.057C437.114 42.953 438.816 37.7175 442.22 34.3505C445.624 30.9465 450.878 29.2445 457.982 29.2445C460.387 29.2445 461.589 30.595 461.589 33.296C461.589 36.034 460.387 37.403 457.982 37.403C453.135 37.403 449.805 38.291 447.992 40.067C446.179 41.843 445.272 45.173 445.272 50.057V51.9995H457.482C460.22 51.9995 461.589 53.35 461.589 56.051C461.589 58.789 460.22 60.158 457.482 60.158H445.272V102.893C445.272 105.631 443.922 107 441.221 107ZM471.933 106.611C469.343 105.575 468.566 103.781 469.602 101.228L496.409 36.182C497.334 34.036 498.851 32.963 500.96 32.963H501.237C503.346 33.074 504.789 34.147 505.566 36.182L532.65 101.228C533.686 103.781 532.946 105.575 530.43 106.611C527.877 107.611 526.101 106.871 525.102 104.391L518.609 88.8515H483.477L477.206 104.391C476.17 106.908 474.412 107.648 471.933 106.611ZM486.696 80.693H515.279L500.793 45.8945L486.696 80.693ZM552.343 107C550.974 107 549.938 106.667 549.235 106.001C548.569 105.298 548.236 104.262 548.236 102.893V37.1255C548.236 35.7195 548.569 34.6835 549.235 34.0175C549.938 33.3515 550.974 33.0185 552.343 33.0185C553.712 33.0185 554.73 33.3515 555.396 34.0175C556.062 34.6835 556.395 35.7195 556.395 37.1255V102.893C556.395 104.262 556.062 105.298 555.396 106.001C554.73 106.667 553.712 107 552.343 107Z" fill="black"/>
<path fill-rule="evenodd" clip-rule="evenodd" d="M204.844 135.938C239.275 135.938 267.188 107.536 267.188 72.5C267.188 37.4644 239.275 9.0625 204.844 9.0625C170.412 9.0625 142.5 37.4644 142.5 72.5C142.5 107.536 170.412 135.938 204.844 135.938ZM251.3 59.2354V52.7664C251.3 35.9324 230.66 21.8385 205.292 21.3496C192.216 21.1563 180.072 24.1388 170.787 29.8992C166.21 32.7162 162.573 36.0963 160.096 39.8355C157.62 43.5748 156.354 47.5958 156.377 51.656V59.2354C149.833 59.2354 144.511 62.6348 144.511 66.8148V81.9737C144.511 86.1538 149.833 89.5532 156.377 89.5532H167.522C167.841 94.532 169.881 99.2408 173.287 102.791C177.007 106.668 182.052 108.845 187.312 108.845C188.006 108.811 188.7 108.776 189.394 108.673L199.179 118.87L203.84 123.659L208.501 118.87L218.285 108.673C218.98 108.776 219.674 108.811 220.368 108.845C225.628 108.845 230.673 106.668 234.393 102.791C237.799 99.2408 239.839 94.532 240.158 89.5532H251.3C257.844 89.5532 263.166 86.1538 263.166 81.9737V66.8148C263.166 62.6348 257.844 59.2354 251.3 59.2354ZM168.242 51.656V82.5459C168.52 81.5372 168.873 80.5432 169.296 79.5622L169.567 78.9068C173.386 69.681 177.26 60.3194 171.577 47.8676C180.304 54.9644 192.733 60.5799 203.84 60.6144C214.947 60.5799 227.376 54.9644 236.103 47.8676C230.419 60.3194 234.294 69.681 238.113 78.9068L238.384 79.5622C238.806 80.5396 239.157 81.5299 239.435 82.5347V52.7664C239.435 39.9874 223.962 29.2929 204.93 28.929C200.163 28.8302 195.413 29.3468 190.965 30.448C186.518 31.5491 182.464 33.2121 179.046 35.3375C175.613 37.4506 172.886 39.9859 171.03 42.7905C169.173 45.5951 168.225 48.6109 168.242 51.656ZM203.84 99.5436C205.691 102.437 208.17 104.815 211.112 106.434L203.84 114.013L196.568 106.434C199.51 104.815 202.022 102.437 203.84 99.5436ZM220.368 83.0073C218.615 83.0073 216.933 83.7332 215.693 85.0254C214.453 86.3175 213.757 88.0701 213.757 89.8974C213.757 91.7248 214.453 93.4774 215.693 94.7695C216.933 96.0617 218.615 96.7876 220.368 96.7876C222.121 96.7876 223.803 96.0617 225.043 94.7695C226.283 93.4774 226.979 91.7248 226.979 89.8974C226.979 88.0701 226.283 86.3175 225.043 85.0254C223.803 83.7332 222.121 83.0073 220.368 83.0073ZM187.312 83.0073C185.558 83.0073 183.877 83.7332 182.637 85.0254C181.397 86.3175 180.701 88.0701 180.701 89.8974C180.701 91.7248 181.397 93.4774 182.637 94.7695C183.877 96.0617 185.558 96.7876 187.312 96.7876C189.065 96.7876 190.747 96.0617 191.987 94.7695C193.227 93.4774 193.923 91.7248 193.923 89.8974C193.923 88.0701 193.227 86.3175 191.987 85.0254C190.747 83.7332 189.065 83.0073 187.312 83.0073ZM220.368 74.3946C223.875 74.3946 227.238 75.8465 229.718 78.4308C232.197 81.0151 233.59 84.5201 233.59 88.1749C233.59 91.8297 232.197 95.3347 229.718 97.919C227.238 100.503 223.875 101.955 220.368 101.955C216.861 101.955 213.498 100.503 211.018 97.919C208.539 95.3347 207.146 91.8297 207.146 88.1749C207.146 84.5201 208.539 81.0151 211.018 78.4308C213.498 75.8465 216.861 74.3946 220.368 74.3946ZM187.312 74.3946C190.819 74.3946 194.182 75.8465 196.662 78.4308C199.141 81.0151 200.534 84.5201 200.534 88.1749C200.534 91.8297 199.141 95.3347 196.662 97.919C194.182 100.503 190.819 101.955 187.312 101.955C183.805 101.955 180.442 100.503 177.962 97.919C175.482 95.3347 174.089 91.8297 174.089 88.1749C174.089 84.5201 175.482 81.0151 177.962 78.4308C180.442 75.8465 183.805 74.3946 187.312 74.3946Z" fill="#AD7AA7"/>
</svg>
