<svg width="28" height="28" viewBox="0 0 28 28" fill="none" xmlns="http://www.w3.org/2000/svg">
<path fill-rule="evenodd" clip-rule="evenodd" d="M14 28C21.732 28 28 21.732 28 14C28 6.26801 21.732 0 14 0C6.26801 0 0 6.26801 0 14C0 21.732 6.26801 28 14 28ZM24.4323 11.0726V9.64496C24.4323 5.92989 19.7974 2.8195 14.1006 2.71161C11.1643 2.66896 8.43721 3.32716 6.35223 4.59842C5.32431 5.2201 4.50763 5.96604 3.95146 6.79126C3.39529 7.61648 3.11115 8.50388 3.11618 9.39991V11.0726C1.6467 11.0726 0.45166 11.8228 0.45166 12.7453V16.0907C0.45166 17.0132 1.6467 17.7634 3.11618 17.7634H5.61928C5.69094 18.8622 6.14891 19.9013 6.91389 20.6848C7.74915 21.5403 8.88202 22.0209 10.0633 22.0209C10.2191 22.0133 10.375 22.0057 10.5309 21.9829L12.7282 24.2334L13.7748 25.2902L14.8215 24.2334L17.0187 21.9829C17.1746 22.0057 17.3305 22.0133 17.4864 22.0209C18.6676 22.0209 19.8005 21.5403 20.6358 20.6848C21.4007 19.9013 21.8587 18.8622 21.9304 17.7634H24.4323C25.9018 17.7634 27.0968 17.0132 27.0968 16.0907V12.7453C27.0968 11.8228 25.9018 11.0726 24.4323 11.0726ZM5.78069 9.39991V16.2178C5.8432 15.9949 5.92241 15.7752 6.01765 15.5585L6.07853 15.4138C6.936 13.3778 7.80609 11.3118 6.52984 8.5638C8.48955 10.13 11.2807 11.3693 13.7748 11.3769C16.269 11.3693 19.0601 10.13 21.0198 8.5638C19.7436 11.3118 20.6137 13.3778 21.4711 15.4138L21.532 15.5585C21.6266 15.7739 21.7055 15.9921 21.7678 16.2136V9.64496C21.7678 6.82479 18.2933 4.4646 14.0194 4.38431C12.9488 4.3625 11.8822 4.47651 10.8834 4.71952C9.88467 4.96253 8.97427 5.32954 8.20673 5.79858C7.43595 6.26493 6.82361 6.82445 6.40666 7.44339C5.9897 8.06234 5.77677 8.7279 5.78069 9.39991ZM13.7748 19.9682C14.1905 20.6068 14.7473 21.1314 15.4079 21.4887L13.7748 23.1614L12.1417 21.4887C12.8024 21.1314 13.3666 20.6068 13.7748 19.9682ZM17.4864 16.3188C17.0926 16.3188 16.715 16.479 16.4366 16.7641C16.1582 17.0493 16.0018 17.4361 16.0018 17.8393C16.0018 18.2426 16.1582 18.6294 16.4366 18.9146C16.715 19.1997 17.0926 19.3599 17.4864 19.3599C17.8801 19.3599 18.2578 19.1997 18.5362 18.9146C18.8146 18.6294 18.971 18.2426 18.971 17.8393C18.971 17.4361 18.8146 17.0493 18.5362 16.7641C18.2578 16.479 17.8801 16.3188 17.4864 16.3188ZM10.0633 16.3188C9.66951 16.3188 9.29189 16.479 9.01347 16.7641C8.73505 17.0493 8.57863 17.4361 8.57863 17.8393C8.57863 18.2426 8.73505 18.6294 9.01347 18.9146C9.29189 19.1997 9.66951 19.3599 10.0633 19.3599C10.457 19.3599 10.8346 19.1997 11.113 18.9146C11.3915 18.6294 11.5479 18.2426 11.5479 17.8393C11.5479 17.4361 11.3915 17.0493 11.113 16.7641C10.8346 16.479 10.457 16.3188 10.0633 16.3188ZM17.4864 14.418C18.2739 14.418 19.0291 14.7384 19.586 15.3088C20.1428 15.8791 20.4557 16.6526 20.4557 17.4592C20.4557 18.2658 20.1428 19.0393 19.586 19.6096C19.0291 20.18 18.2739 20.5004 17.4864 20.5004C16.6989 20.5004 15.9437 20.18 15.3868 19.6096C14.83 19.0393 14.5171 18.2658 14.5171 17.4592C14.5171 16.6526 14.83 15.8791 15.3868 15.3088C15.9437 14.7384 16.6989 14.418 17.4864 14.418ZM10.0633 14.418C10.8508 14.418 11.606 14.7384 12.1628 15.3088C12.7197 15.8791 13.0325 16.6526 13.0325 17.4592C13.0325 18.2658 12.7197 19.0393 12.1628 19.6096C11.606 20.18 10.8508 20.5004 10.0633 20.5004C9.27576 20.5004 8.52052 20.18 7.96368 19.6096C7.40683 19.0393 7.094 18.2658 7.094 17.4592C7.094 16.6526 7.40683 15.8791 7.96368 15.3088C8.52052 14.7384 9.27576 14.418 10.0633 14.418Z" fill="#874A80"/>
</svg>
