<svg width="70" height="70" viewBox="0 0 70 70" fill="none" xmlns="http://www.w3.org/2000/svg">
<path fill-rule="evenodd" clip-rule="evenodd" d="M35 70C54.33 70 70 54.33 70 35C70 15.67 54.33 0 35 0C15.67 0 0 15.67 0 35C0 54.33 15.67 70 35 70ZM61.0806 27.6816V24.1125C61.0806 14.8248 49.4933 7.04882 35.2515 6.77909C27.9107 6.67246 21.0929 8.31798 15.8805 11.4961C13.3107 13.0503 11.269 14.9152 9.87853 16.9782C8.4881 19.0413 7.77775 21.2598 7.79032 23.4999V27.6816C4.11662 27.6816 1.12903 29.5571 1.12903 31.8634V40.2269C1.12903 42.5331 4.11662 44.4086 7.79032 44.4086H14.0473C14.2265 47.1556 15.3714 49.7535 17.2839 51.7123C19.372 53.8511 22.2042 55.0526 25.1573 55.0526C25.547 55.0336 25.9367 55.0146 26.3264 54.9576L31.8196 60.5837L34.4362 63.2257L37.0529 60.5837L42.546 54.9576C42.9357 55.0146 43.3254 55.0336 43.7151 55.0526C46.6682 55.0526 49.5004 53.8511 51.5886 51.7123C53.501 49.7535 54.646 47.1556 54.8251 44.4086H61.0806C64.7543 44.4086 67.7419 42.5331 67.7419 40.2269V31.8634C67.7419 29.5571 64.7543 27.6816 61.0806 27.6816ZM14.4516 23.4999V40.5421C14.6078 39.9857 14.8055 39.4375 15.0433 38.8964L15.1955 38.5348C17.3391 33.4447 19.5144 28.2797 16.3238 21.4097C21.223 25.3252 28.2008 28.4234 34.4362 28.4424C40.6717 28.4234 47.6494 25.3252 52.5487 21.4097C49.3581 28.2797 51.5333 33.4447 53.677 38.5348L53.8292 38.8964C54.0661 39.4358 54.2634 39.9823 54.4193 40.5368V24.1125C54.4193 17.062 45.733 11.1616 35.0483 10.9609C32.3718 10.9063 29.7054 11.1914 27.2085 11.7989C24.7116 12.4064 22.4356 13.3239 20.5167 14.4965C18.5898 15.6624 17.0589 17.0612 16.0165 18.6086C14.9741 20.1559 14.4418 21.8198 14.4516 23.4999ZM34.4362 49.9206C35.4755 51.5172 36.8673 52.8287 38.5189 53.7221L34.4362 57.9037L30.3535 53.7221C32.0051 52.8287 33.4155 51.5172 34.4362 49.9206ZM43.7151 40.7971C42.7308 40.7971 41.7867 41.1976 41.0907 41.9106C40.3946 42.6235 40.0036 43.5904 40.0036 44.5986C40.0036 45.6068 40.3946 46.5737 41.0907 47.2866C41.7867 47.9995 42.7308 48.4 43.7151 48.4C44.6995 48.4 45.6436 47.9995 46.3396 47.2866C47.0357 46.5737 47.4267 45.6068 47.4267 44.5986C47.4267 43.5904 47.0357 42.6235 46.3396 41.9106C45.6436 41.1976 44.6995 40.7971 43.7151 40.7971ZM25.1573 40.7971C24.1729 40.7971 23.2289 41.1976 22.5328 41.9106C21.8368 42.6235 21.4457 43.5904 21.4457 44.5986C21.4457 45.6068 21.8368 46.5737 22.5328 47.2866C23.2289 47.9995 24.1729 48.4 25.1573 48.4C26.1417 48.4 27.0857 47.9995 27.7818 47.2866C28.4778 46.5737 28.8689 45.6068 28.8689 44.5986C28.8689 43.5904 28.4778 42.6235 27.7818 41.9106C27.0857 41.1976 26.1417 40.7971 25.1573 40.7971ZM43.7151 36.0453C45.6839 36.0453 47.572 36.8463 48.9641 38.2722C50.3562 39.698 51.1383 41.6318 51.1383 43.6482C51.1383 45.6646 50.3562 47.5985 48.9641 49.0243C47.572 50.4501 45.6839 51.2511 43.7151 51.2511C41.7464 51.2511 39.8583 50.4501 38.4662 49.0243C37.0741 47.5985 36.292 45.6646 36.292 43.6482C36.292 41.6318 37.0741 39.698 38.4662 38.2722C39.8583 36.8463 41.7464 36.0453 43.7151 36.0453ZM25.1573 36.0453C27.126 36.0453 29.0141 36.8463 30.4062 38.2722C31.7984 39.698 32.5804 41.6318 32.5804 43.6482C32.5804 45.6646 31.7984 47.5985 30.4062 49.0243C29.0141 50.4501 27.126 51.2511 25.1573 51.2511C23.1886 51.2511 21.3004 50.4501 19.9083 49.0243C18.5162 47.5985 17.7342 45.6646 17.7342 43.6482C17.7342 41.6318 18.5162 39.698 19.9083 38.2722C21.3004 36.8463 23.1886 36.0453 25.1573 36.0453Z" fill="#0F0F0F"/>
</svg>
