<svg width="351" height="69" viewBox="0 0 351 69" fill="none" xmlns="http://www.w3.org/2000/svg">
<path d="M83.9411 28.1963C85.5317 23.5111 85.0015 18.3148 82.4389 14.0556C78.5509 7.4963 70.6864 4.17407 62.9987 5.70741C59.6408 2.04444 54.6924 0 49.5672 0C41.7027 0 34.8103 4.85556 32.336 12.0111C27.2993 13.0333 22.9694 16.0148 20.4068 20.3593C16.5187 26.9185 17.4024 35.0963 22.6159 40.7185C21.0253 45.4889 21.6439 50.6 24.2065 54.8593C28.0945 61.4185 35.959 64.8259 43.6468 63.2074C47.093 66.8704 51.953 69 57.0782 69C64.9427 69 71.8351 64.1444 74.3094 56.9889C79.3462 55.9667 83.676 52.9852 86.2386 48.6407C90.1267 42.0815 89.243 33.8185 83.9411 28.1963ZM57.0782 64.4852C53.8971 64.4852 50.8927 63.463 48.5068 61.5037C48.5952 61.4185 48.8603 61.3333 48.9486 61.2482L63.1754 53.3259C63.8823 52.9 64.3241 52.2185 64.3241 51.3667V32.0296L70.3329 35.3519C70.4213 35.3519 70.4213 35.437 70.4213 35.5222V51.537C70.5097 58.6926 64.5009 64.4852 57.0782 64.4852ZM28.2713 52.6444C26.6807 50.0037 26.1505 46.937 26.6807 43.9556C26.7691 44.0407 26.9458 44.1259 27.1225 44.2111L41.3493 52.1333C42.0562 52.5593 42.9398 52.5593 43.6468 52.1333L61.0546 42.4222V49.1519C61.0546 49.237 61.0546 49.3222 60.9663 49.3222L46.5628 57.3296C40.2005 60.9074 31.9826 58.7778 28.2713 52.6444ZM24.5599 22.6593C26.1505 20.0185 28.6247 18.0593 31.5408 16.9519V33.3074C31.5408 34.0741 31.9826 34.8407 32.6895 35.2667L50.0974 44.9778L44.0886 48.3C44.0002 48.3 43.9118 48.3852 43.9118 48.3L29.5084 40.2926C22.9694 36.7148 20.8486 28.7926 24.5599 22.6593ZM74.0443 33.7333L56.6364 24.0222L62.6452 20.7C62.7336 20.7 62.8219 20.6148 62.8219 20.7L77.2254 28.7074C83.676 32.2852 85.7968 40.2074 82.0855 46.3407C80.4949 48.9815 78.0207 50.9407 75.1046 51.963V35.6926C75.193 34.9259 74.7512 34.1593 74.0443 33.7333ZM79.9647 25.0444C79.8764 24.9593 79.6996 24.8741 79.5229 24.7889L65.2961 16.8667C64.5892 16.4407 63.7056 16.4407 62.9987 16.8667L45.5908 26.5778V19.8481C45.5908 19.763 45.5908 19.6778 45.6791 19.6778L60.0826 11.6704C66.5333 8.09259 74.6628 10.2222 78.3742 16.4407C79.9647 18.9963 80.4949 22.063 79.9647 25.0444ZM42.3213 36.9704L36.3125 33.6481C36.2241 33.6481 36.2241 33.563 36.2241 33.4778V17.463C36.2241 10.3074 42.2329 4.51482 49.6556 4.51482C52.8367 4.51482 55.8411 5.53704 58.227 7.4963C58.1386 7.58148 57.9619 7.66667 57.7851 7.75185L43.5584 15.6741C42.8515 16.1 42.4096 16.7815 42.4096 17.6333V36.9704H42.3213ZM45.5908 30.1556L53.3669 25.8111L61.143 30.1556V38.7593L53.3669 43.1037L45.5908 38.7593V30.1556Z" fill="black"/>
<path d="M226.584 23.6172C222.342 23.6172 219.249 25.0653 217.747 27.706L216.952 29.1542V24.2986H209.971V53.6875H217.305V36.2246C217.305 32.0505 219.691 29.6653 223.756 29.6653C227.644 29.6653 229.941 31.9653 229.941 36.0542V53.6875H237.276V34.7764C237.276 27.7912 233.299 23.6172 226.584 23.6172ZM191.061 23.6172C182.401 23.6172 177.099 28.8135 177.099 37.1616V41.2505C177.099 49.3431 182.489 54.2838 191.238 54.2838C197.07 54.2838 201.134 52.2394 203.697 47.9801L199.19 45.4246C197.246 47.8949 194.242 49.3431 191.238 49.3431C186.819 49.3431 184.168 46.7023 184.168 42.2727V41.0801H204.581V36.2246C204.581 28.6431 199.279 23.6172 191.061 23.6172ZM197.953 36.5653H184.168V35.8838C184.168 31.0283 186.643 28.3875 191.061 28.3875C195.391 28.3875 197.953 31.0283 197.953 35.4579V36.5653ZM310 19.5283V13.9061H284.639V19.5283H293.564V48.0653H284.639V53.6875H310V48.0653H301.075V19.5283H310ZM117.806 13.0542C106.496 13.0542 99.4265 19.869 99.4265 30.7727V36.7357C99.4265 47.7246 106.496 54.4542 117.806 54.4542C129.117 54.4542 136.186 47.6394 136.186 36.7357V30.7727C136.186 19.869 129.117 13.0542 117.806 13.0542ZM128.587 37.1616C128.587 44.4023 124.699 48.5764 117.806 48.5764C110.914 48.5764 107.026 44.4875 107.026 37.1616V30.432C107.026 23.1912 111.002 19.0172 117.806 19.0172C124.61 19.0172 128.587 23.1912 128.587 30.432V37.1616ZM159.249 23.6172C155.361 23.6172 152.092 25.1505 150.325 27.706L149.529 28.8986V24.2986H142.549V63.7394H149.883V49.5135L150.678 50.6209C152.357 53.006 155.538 54.369 159.338 54.369C165.7 54.369 172.062 50.3653 172.062 41.5061V36.4801C171.974 30.0912 167.998 23.6172 159.249 23.6172ZM164.64 41.1653C164.64 45.9357 161.812 48.832 157.129 48.832C152.799 48.832 149.794 45.7653 149.794 41.2505V36.8209C149.794 32.306 152.799 29.1542 157.129 29.1542C161.724 29.1542 164.551 32.0505 164.551 36.8209L164.64 41.1653ZM257.511 13.9061L242.754 53.6875H250.177L253.005 45.169H269.971V45.2542L272.798 53.6875H280.221L265.376 13.9061H257.511ZM254.86 39.5468L261.576 19.4431L268.203 39.5468H254.86Z" fill="black"/>
</svg>
