<svg width="375" height="218" viewBox="0 0 375 218" fill="none" xmlns="http://www.w3.org/2000/svg">
<mask id="path-1-inside-1_164_957" fill="white">
<path d="M258.854 21.0147C258.931 16.5966 262.582 13.0425 266.978 13.4918C272.61 14.0674 278.179 15.1459 283.62 16.7144C287.856 17.9354 289.92 22.5783 288.361 26.702L277.094 56.5033C275.528 60.6452 270.896 62.6543 266.553 61.7936C266.405 61.7644 266.257 61.7358 266.109 61.708C261.768 60.8905 258.224 57.3155 258.3 52.8984L258.854 21.0147Z"/>
</mask>
<path d="M258.854 21.0147C258.931 16.5966 262.582 13.0425 266.978 13.4918C272.61 14.0674 278.179 15.1459 283.62 16.7144C287.856 17.9354 289.92 22.5783 288.361 26.702L277.094 56.5033C275.528 60.6452 270.896 62.6543 266.553 61.7936C266.405 61.7644 266.257 61.7358 266.109 61.708C261.768 60.8905 258.224 57.3155 258.3 52.8984L258.854 21.0147Z" fill="#E5243B" stroke="white" stroke-width="8" stroke-linejoin="round" mask="url(#path-1-inside-1_164_957)"/>
<mask id="path-2-inside-2_164_957" fill="white">
<path d="M290.556 27.6301C292.234 23.5318 296.942 21.5469 300.877 23.5774C305.914 26.1762 310.711 29.2208 315.21 32.675C318.703 35.3567 318.934 40.4256 315.986 43.6967L294.704 67.3092C291.736 70.602 286.684 70.7867 282.952 68.3959C282.816 68.309 282.68 68.2229 282.544 68.1374C278.808 65.7978 276.815 61.1899 278.485 57.1107L290.556 27.6301Z"/>
</mask>
<path d="M290.556 27.6301C292.234 23.5318 296.942 21.5469 300.877 23.5774C305.914 26.1762 310.711 29.2208 315.21 32.675C318.703 35.3567 318.934 40.4256 315.986 43.6967L294.704 67.3092C291.736 70.602 286.684 70.7867 282.952 68.3959C282.816 68.309 282.68 68.2229 282.544 68.1374C278.808 65.7978 276.815 61.1899 278.485 57.1107L290.556 27.6301Z" fill="#DDA63A" stroke="white" stroke-width="8" stroke-linejoin="round" mask="url(#path-2-inside-2_164_957)"/>
<mask id="path-3-inside-3_164_957" fill="white">
<path d="M317.981 45.6756C321.053 42.4797 326.167 42.3705 329.078 45.7136C332.808 49.9973 336.15 54.6066 339.066 59.4867C341.326 63.2697 339.67 68.0703 335.72 70.0233L307.295 84.0755C303.324 86.0387 298.564 84.3492 295.979 80.7514C295.876 80.608 295.773 80.4652 295.668 80.323C293.059 76.7751 292.907 71.7631 295.958 68.5882L317.981 45.6756Z"/>
</mask>
<path d="M317.981 45.6756C321.053 42.4797 326.167 42.3705 329.078 45.7136C332.808 49.9973 336.15 54.6066 339.066 59.4867C341.326 63.2697 339.67 68.0703 335.72 70.0233L307.295 84.0755C303.324 86.0387 298.564 84.3492 295.979 80.7514C295.876 80.608 295.773 80.4652 295.668 80.323C293.059 76.7751 292.907 71.7631 295.958 68.5882L317.981 45.6756Z" fill="#4C9F38" stroke="white" stroke-width="8" stroke-linejoin="round" mask="url(#path-3-inside-3_164_957)"/>
<mask id="path-4-inside-4_164_957" fill="white">
<path d="M336.998 72.894C341.036 71.075 345.818 72.8752 347.279 77.0565C349.156 82.4289 350.552 87.9589 351.452 93.5805C352.149 97.9412 348.817 101.79 344.414 102.127L312.84 104.538C308.432 104.875 304.652 101.543 303.593 97.2516C303.548 97.0684 303.502 96.8856 303.454 96.7029C302.348 92.4367 304.074 87.7232 308.092 85.9132L336.998 72.894Z"/>
</mask>
<path d="M336.998 72.894C341.036 71.075 345.818 72.8752 347.279 77.0565C349.156 82.4289 350.552 87.9589 351.452 93.5805C352.149 97.9412 348.817 101.79 344.414 102.127L312.84 104.538C308.432 104.875 304.652 101.543 303.593 97.2516C303.548 97.0684 303.502 96.8856 303.454 96.7029C302.348 92.4367 304.074 87.7232 308.092 85.9132L336.998 72.894Z" fill="#C5192D" stroke="white" stroke-width="8" stroke-linejoin="round" mask="url(#path-4-inside-4_164_957)"/>
<mask id="path-5-inside-5_164_957" fill="white">
<path d="M344.56 104.678C348.975 104.471 352.756 107.887 352.594 112.304C352.386 117.994 351.672 123.654 350.463 129.217C349.523 133.542 345 135.912 340.772 134.603L310.504 125.235C306.291 123.931 304 119.461 304.579 115.089C304.604 114.9 304.627 114.711 304.65 114.522C305.178 110.136 308.518 106.372 312.93 106.164L344.56 104.678Z"/>
</mask>
<path d="M344.56 104.678C348.975 104.471 352.756 107.887 352.594 112.304C352.386 117.994 351.672 123.654 350.463 129.217C349.523 133.542 345 135.912 340.772 134.603L310.504 125.235C306.291 123.931 304 119.461 304.579 115.089C304.604 114.9 304.627 114.711 304.65 114.522C305.178 110.136 308.518 106.372 312.93 106.164L344.56 104.678Z" fill="#FF3A21" stroke="white" stroke-width="8" stroke-linejoin="round" mask="url(#path-5-inside-5_164_957)"/>
<mask id="path-6-inside-6_164_957" fill="white">
<path d="M340.536 135.502C344.734 136.851 347.081 141.359 345.4 145.436C343.231 150.695 340.6 155.75 337.538 160.539C335.15 164.274 330.077 164.919 326.568 162.211L301.435 142.814C297.948 140.124 297.361 135.143 299.42 131.25C299.505 131.089 299.589 130.928 299.673 130.766C301.698 126.829 306.153 124.459 310.368 125.813L340.536 135.502Z"/>
</mask>
<path d="M340.536 135.502C344.734 136.851 347.081 141.359 345.4 145.436C343.231 150.695 340.6 155.75 337.538 160.539C335.15 164.274 330.077 164.919 326.568 162.211L301.435 142.814C297.948 140.124 297.361 135.143 299.42 131.25C299.505 131.089 299.589 130.928 299.673 130.766C301.698 126.829 306.153 124.459 310.368 125.813L340.536 135.502Z" fill="#26BDE2" stroke="white" stroke-width="8" stroke-linejoin="round" mask="url(#path-6-inside-6_164_957)"/>
<mask id="path-7-inside-7_164_957" fill="white">
<path d="M325.781 163.343C329.225 166.088 329.826 171.127 326.819 174.344C322.942 178.492 318.704 182.284 314.157 185.676C310.605 188.326 305.633 187.137 303.307 183.364L286.607 156.272C284.295 152.522 285.507 147.654 288.808 144.737C288.934 144.626 289.059 144.514 289.183 144.402C292.474 141.432 297.487 140.789 300.953 143.551L325.781 163.343Z"/>
</mask>
<path d="M325.781 163.343C329.225 166.088 329.826 171.127 326.819 174.344C322.942 178.492 318.704 182.284 314.157 185.676C310.605 188.326 305.633 187.137 303.307 183.364L286.607 156.272C284.295 152.522 285.507 147.654 288.808 144.737C288.934 144.626 289.059 144.514 289.183 144.402C292.474 141.432 297.487 140.789 300.953 143.551L325.781 163.343Z" fill="#FCC30B" stroke="white" stroke-width="8" stroke-linejoin="round" mask="url(#path-7-inside-7_164_957)"/>
<mask id="path-8-inside-8_164_957" fill="white">
<path d="M302.166 184.141C304.418 187.927 303.199 192.855 299.246 194.799C294.161 197.3 288.865 199.341 283.42 200.898C279.166 202.113 274.944 199.249 274.099 194.906L268.006 163.614C267.163 159.282 270.023 155.148 274.15 153.585C274.294 153.53 274.438 153.475 274.582 153.419C278.71 151.808 283.626 152.978 285.892 156.786L302.166 184.141Z"/>
</mask>
<path d="M302.166 184.141C304.418 187.927 303.199 192.855 299.246 194.799C294.161 197.3 288.865 199.341 283.42 200.898C279.166 202.113 274.944 199.249 274.099 194.906L268.006 163.614C267.163 159.282 270.023 155.148 274.15 153.585C274.294 153.53 274.438 153.475 274.582 153.419C278.71 151.808 283.626 152.978 285.892 156.786L302.166 184.141Z" fill="#A21942" stroke="white" stroke-width="8" stroke-linejoin="round" mask="url(#path-8-inside-8_164_957)"/>
<mask id="path-9-inside-9_164_957" fill="white">
<path d="M271.97 195.325C272.706 199.676 269.779 203.838 265.381 204.212C259.741 204.692 254.069 204.667 248.434 204.136C244.04 203.723 241.15 199.536 241.924 195.191L247.52 163.804C248.296 159.449 252.471 156.623 256.895 156.664C257.044 156.665 257.193 156.666 257.342 156.666C261.765 156.665 265.914 159.528 266.652 163.889L271.97 195.325Z"/>
</mask>
<path d="M271.97 195.325C272.706 199.676 269.779 203.838 265.381 204.212C259.741 204.692 254.069 204.667 248.434 204.136C244.04 203.723 241.15 199.536 241.924 195.191L247.52 163.804C248.296 159.449 252.471 156.623 256.895 156.664C257.044 156.665 257.193 156.666 257.342 156.666C261.765 156.665 265.914 159.528 266.652 163.889L271.97 195.325Z" fill="#FD6925" stroke="white" stroke-width="8" stroke-linejoin="round" mask="url(#path-9-inside-9_164_957)"/>
<mask id="path-10-inside-10_164_957" fill="white">
<path d="M239.88 194.769C239 199.105 234.755 201.936 230.512 200.686C225.079 199.086 219.799 197.003 214.734 194.461C210.797 192.486 209.616 187.548 211.899 183.78L228.388 156.557C230.684 152.767 235.609 151.636 239.724 153.279C239.868 153.337 240.012 153.393 240.156 153.449C244.27 155.046 247.097 159.202 246.22 163.526L239.88 194.769Z"/>
</mask>
<path d="M239.88 194.769C239 199.105 234.755 201.936 230.512 200.686C225.079 199.086 219.799 197.003 214.734 194.461C210.797 192.486 209.616 187.548 211.899 183.78L228.388 156.557C230.684 152.767 235.609 151.636 239.724 153.279C239.868 153.337 240.012 153.393 240.156 153.449C244.27 155.046 247.097 159.202 246.22 163.526L239.88 194.769Z" fill="#DD1367" stroke="white" stroke-width="8" stroke-linejoin="round" mask="url(#path-10-inside-10_164_957)"/>
<mask id="path-11-inside-11_164_957" fill="white">
<path d="M211.809 183.647C209.507 187.434 204.542 188.654 200.974 186.026C196.406 182.662 192.145 178.896 188.243 174.772C185.216 171.574 185.786 166.531 189.213 163.765L213.919 143.82C217.369 141.036 222.386 141.649 225.695 144.598C225.82 144.71 225.945 144.82 226.072 144.93C229.391 147.827 230.632 152.687 228.344 156.452L211.809 183.647Z"/>
</mask>
<path d="M211.809 183.647C209.507 187.434 204.542 188.654 200.974 186.026C196.406 182.662 192.145 178.896 188.243 174.772C185.216 171.574 185.786 166.531 189.213 163.765L213.919 143.82C217.369 141.036 222.386 141.649 225.695 144.598C225.82 144.71 225.945 144.82 226.072 144.93C229.391 147.827 230.632 152.687 228.344 156.452L211.809 183.647Z" fill="#FD9D24" stroke="white" stroke-width="8" stroke-linejoin="round" mask="url(#path-11-inside-11_164_957)"/>
<mask id="path-12-inside-12_164_957" fill="white">
<path d="M188.444 162.67C184.953 165.401 179.875 164.789 177.463 161.071C174.37 156.302 171.706 151.265 169.502 146.02C167.794 141.955 170.111 137.431 174.301 136.055L204.404 126.165C208.61 124.783 213.081 127.124 215.132 131.047C215.217 131.208 215.302 131.369 215.388 131.529C217.473 135.409 216.918 140.393 213.45 143.107L188.444 162.67Z"/>
</mask>
<path d="M188.444 162.67C184.953 165.401 179.875 164.789 177.463 161.071C174.37 156.302 171.706 151.265 169.502 146.02C167.794 141.955 170.111 137.431 174.301 136.055L204.404 126.165C208.61 124.783 213.081 127.124 215.132 131.047C215.217 131.208 215.302 131.369 215.388 131.529C217.473 135.409 216.918 140.393 213.45 143.107L188.444 162.67Z" fill="#BF8B2E" stroke="white" stroke-width="8" stroke-linejoin="round" mask="url(#path-12-inside-12_164_957)"/>
<mask id="path-13-inside-13_164_957" fill="white">
<path d="M173.487 133.26C169.238 134.501 164.755 132.059 163.883 127.72C162.762 122.138 162.139 116.467 162.021 110.774C161.929 106.355 165.765 102.999 170.176 103.278L201.779 105.272C206.187 105.55 209.466 109.367 209.923 113.76C209.943 113.95 209.964 114.139 209.986 114.329C210.495 118.709 208.132 123.143 203.899 124.379L173.487 133.26Z"/>
</mask>
<path d="M173.487 133.26C169.238 134.501 164.755 132.059 163.883 127.72C162.762 122.138 162.139 116.467 162.021 110.774C161.929 106.355 165.765 102.999 170.176 103.278L201.779 105.272C206.187 105.55 209.466 109.367 209.923 113.76C209.943 113.95 209.964 114.139 209.986 114.329C210.495 118.709 208.132 123.143 203.899 124.379L173.487 133.26Z" fill="#3F7E44" stroke="white" stroke-width="8" stroke-linejoin="round" mask="url(#path-13-inside-13_164_957)"/>
<mask id="path-14-inside-14_164_957" fill="white">
<path d="M170.213 102.577C165.808 102.264 162.456 98.4314 163.131 94.0671C164.001 88.4409 165.369 82.9038 167.219 77.5217C168.658 73.333 173.43 71.5083 177.478 73.3064L206.45 86.1758C210.478 87.9651 212.228 92.6698 211.143 96.9418C211.097 97.1247 211.052 97.3079 211.007 97.4914C209.97 101.788 206.208 105.139 201.799 104.825L170.213 102.577Z"/>
</mask>
<path d="M170.213 102.577C165.808 102.264 162.456 98.4314 163.131 94.0671C164.001 88.4409 165.369 82.9038 167.219 77.5217C168.658 73.333 173.43 71.5083 177.478 73.3064L206.45 86.1758C210.478 87.9651 212.228 92.6698 211.143 96.9418C211.097 97.1247 211.052 97.3079 211.007 97.4914C209.97 101.788 206.208 105.139 201.799 104.825L170.213 102.577Z" fill="#0A97D9" stroke="white" stroke-width="8" stroke-linejoin="round" mask="url(#path-14-inside-14_164_957)"/>
<mask id="path-15-inside-15_164_957" fill="white">
<path d="M178.605 70.7147C174.638 68.7964 172.94 64.0103 175.167 60.2076C178.04 55.302 181.342 50.6634 185.035 46.347C187.916 42.9785 193.031 43.0429 196.13 46.2119L218.352 68.9294C221.431 72.0774 221.322 77.0906 218.745 80.6611C218.641 80.8045 218.538 80.9485 218.436 81.0931C215.884 84.7132 211.139 86.4443 207.151 84.5161L178.605 70.7147Z"/>
</mask>
<path d="M178.605 70.7147C174.638 68.7964 172.94 64.0103 175.167 60.2076C178.04 55.302 181.342 50.6634 185.035 46.347C187.916 42.9785 193.031 43.0429 196.13 46.2119L218.352 68.9294C221.431 72.0774 221.322 77.0906 218.745 80.6611C218.641 80.8045 218.538 80.9485 218.436 81.0931C215.884 84.7132 211.139 86.4443 207.151 84.5161L178.605 70.7147Z" fill="#56C02B" stroke="white" stroke-width="8" stroke-linejoin="round" mask="url(#path-15-inside-15_164_957)"/>
<mask id="path-16-inside-16_164_957" fill="white">
<path d="M198.237 44.0969C195.266 40.8457 195.463 35.7754 198.938 33.0701C203.414 29.5854 208.19 26.5082 213.209 23.8753C217.131 21.818 221.852 23.7712 223.558 27.8582L235.827 57.2557C237.525 61.3235 235.563 65.9446 231.843 68.3093C231.707 68.3959 231.571 68.4831 231.436 68.571C227.72 70.9871 222.666 70.8365 219.676 67.5638L198.237 44.0969Z"/>
</mask>
<path d="M198.237 44.0969C195.266 40.8457 195.463 35.7754 198.938 33.0701C203.414 29.5854 208.19 26.5082 213.209 23.8753C217.131 21.818 221.852 23.7712 223.558 27.8582L235.827 57.2557C237.525 61.3235 235.563 65.9446 231.843 68.3093C231.707 68.3959 231.571 68.4831 231.436 68.571C227.72 70.9871 222.666 70.8365 219.676 67.5638L198.237 44.0969Z" fill="#00689D" stroke="white" stroke-width="8" stroke-linejoin="round" mask="url(#path-16-inside-16_164_957)"/>
<mask id="path-17-inside-17_164_957" fill="white">
<path d="M226.013 26.8112C224.439 22.6931 226.487 18.0431 230.719 16.8072C236.155 15.2196 241.72 14.1216 247.35 13.5263C251.744 13.0615 255.408 16.6029 255.5 21.0208L256.165 52.9024C256.257 57.3191 252.725 60.9064 248.387 61.739C248.239 61.7674 248.091 61.7965 247.943 61.8262C243.603 62.7022 238.964 60.7092 237.384 56.5727L226.013 26.8112Z"/>
</mask>
<path d="M226.013 26.8112C224.439 22.6931 226.487 18.0431 230.719 16.8072C236.155 15.2196 241.72 14.1216 247.35 13.5263C251.744 13.0615 255.408 16.6029 255.5 21.0208L256.165 52.9024C256.257 57.3191 252.725 60.9064 248.387 61.739C248.239 61.7674 248.091 61.7965 247.943 61.8262C243.603 62.7022 238.964 60.7092 237.384 56.5727L226.013 26.8112Z" fill="#19486A" stroke="white" stroke-width="8" stroke-linejoin="round" mask="url(#path-17-inside-17_164_957)"/>
<mask id="path-18-inside-18_164_957" fill="white">
<path d="M358.362 66.5258C362.4 64.7069 367.178 66.5074 368.675 70.6758C371.037 77.2491 372.751 84.0391 373.795 90.9484C374.454 95.3149 371.126 99.1627 366.723 99.499L312.131 103.668C308.562 103.941 305.504 101.24 304.625 97.7704C303.75 94.3108 305.145 90.4948 308.399 89.0292L358.362 66.5258Z"/>
</mask>
<path d="M358.362 66.5258C362.4 64.7069 367.178 66.5074 368.675 70.6758C371.037 77.2491 372.751 84.0391 373.795 90.9484C374.454 95.3149 371.126 99.1627 366.723 99.499L312.131 103.668C308.562 103.941 305.504 101.24 304.625 97.7704C303.75 94.3108 305.145 90.4948 308.399 89.0292L358.362 66.5258Z" fill="#C5192D" stroke="white" stroke-width="8" stroke-linejoin="round" mask="url(#path-18-inside-18_164_957)"/>
<path d="M353.568 81.8405L347.864 80.2695L350.287 89.5687L355.634 89.767L353.568 81.8405Z" fill="white"/>
<path d="M354.118 81.7158L356.18 89.6268L360.774 86.8082L358.351 77.5104L354.118 81.7158Z" fill="white"/>
<path d="M362.179 76.2514C362.16 76.1725 362.126 76.0982 362.079 76.0328C362.031 75.9674 361.971 75.9123 361.901 75.8706C361.832 75.8289 361.755 75.8015 361.676 75.79C361.596 75.7785 361.514 75.7832 361.436 75.8037C361.358 75.8243 361.285 75.8603 361.221 75.9096C361.157 75.959 361.103 76.0207 361.063 76.0911C361.023 76.1615 360.998 76.2392 360.988 76.3197C360.978 76.4002 360.985 76.4818 361.007 76.5598L361.172 77.1941L362.345 76.8856L362.179 76.2514Z" fill="white"/>
<path d="M363.595 85.8911L363.449 85.9294L364.572 87.8337L364.621 85.6211L364.476 85.6594L364.621 85.6211L362.465 77.3476L362.319 77.3859L362.173 77.4242L362.019 77.4647L361.728 77.5415L361.584 77.5794L361.438 77.6176L361.292 77.656L363.449 85.9295L363.595 85.8911Z" fill="white"/>
<path d="M359.519 77.6294L358.878 77.3475L361.374 86.9212L356.334 90.1572L356.079 90.2243L356.029 90.2376L355.774 90.3045L349.892 90.208L347.332 80.3855L346.91 80.947L349.458 90.7223L355.88 90.8125L356.159 90.7389L356.21 90.7256L356.489 90.652L361.554 87.4364L362.005 87.1637L359.519 77.6294Z" fill="white"/>
<rect width="96" height="96" transform="translate(0 61)" fill="white"/>
<path d="M28.9156 76.8832V77.416L31.4039 77.8797V76.8948L30.4314 76.7085C31.1034 76.385 31.4039 75.714 31.4039 74.8567V71.0589C31.4039 69.833 30.802 68.9412 29.4033 68.9412C28.0046 68.9412 27.4122 69.832 27.4122 71.0589V74.8567C27.4122 75.9213 27.8634 76.698 28.9156 76.8832ZM28.7322 70.8516C28.7322 70.3773 28.9396 70.0423 29.4042 70.0423C29.8689 70.0423 30.0858 70.3773 30.0858 70.8516V75.1351C30.0858 75.5978 29.8785 75.9463 29.4042 75.9463C28.93 75.9463 28.7322 75.5978 28.7322 75.1351V70.8516Z" fill="#C5192D"/>
<path d="M34.2414 76.9762C35.5854 76.9762 36.1058 76.1881 36.1058 74.9727V69.0332H34.8894V75.1004C34.8894 75.5631 34.7042 75.8761 34.2414 75.8761C33.7787 75.8761 33.5934 75.5631 33.5934 75.1004V69.0332H32.2734V74.9727C32.2734 76.1881 32.8494 76.9762 34.2414 76.9762Z" fill="#C5192D"/>
<path d="M38.0603 75.447H39.4562L39.7 76.887H41.0546L39.5647 69.0332H38.0603L36.5762 76.8831H37.8242L38.0603 75.447ZM38.7535 71.245H38.7669L39.2872 74.3938H38.2312L38.7535 71.245Z" fill="#C5192D"/>
<path d="M44.6093 75.806H43.0368V69.0332H41.7168V76.8831H44.6093V75.806Z" fill="#C5192D"/>
<path d="M46.5417 69.0332H45.2227V76.8822H46.5417V69.0332Z" fill="#C5192D"/>
<path d="M48.2508 76.8831H49.5804V70.1103H50.669V69.0332H47.1641V70.1103H48.2508V76.8831Z" fill="#C5192D"/>
<path d="M52.542 76.8831H53.862V73.8956L55.3193 69.0332H54.0579L53.2591 72.0092H53.2476L52.4499 69.0332H51.0723L52.542 73.8956V76.8831Z" fill="#C5192D"/>
<path d="M30.557 87.3167H28.7292V84.9302H30.0358V83.8665H28.7292V81.6201H30.557V80.543H27.4102V88.3919H30.557V87.3167Z" fill="#C5192D"/>
<path d="M35.3137 86.2846V82.6501C35.3137 81.4347 34.8174 80.5381 33.4053 80.5381H31.3672V88.388H33.4081C34.8203 88.388 35.3166 87.4846 35.3166 86.276L35.3137 86.2846ZM32.6901 87.307V81.619H33.2459C33.7893 81.619 33.9966 81.9435 33.9966 82.4062V86.517C33.9966 86.9912 33.7893 87.3157 33.2459 87.3157L32.6901 87.307Z" fill="#C5192D"/>
<path d="M36.1819 80.543V86.4825C36.1819 87.6988 36.7579 88.485 38.1489 88.485C39.4929 88.485 40.0123 87.6988 40.0123 86.4825V80.543H38.7979V86.6092C38.7979 87.0729 38.6116 87.3849 38.1489 87.3849C37.6862 87.3849 37.5009 87.0729 37.5009 86.6092V80.543H36.1819Z" fill="#C5192D"/>
<path d="M40.8809 86.3662C40.8809 87.5815 41.4569 88.4849 42.8489 88.4849C44.2409 88.4849 44.7113 87.6516 44.7113 86.5275V85.1739H43.5084V86.6206C43.5084 87.0843 43.3461 87.3886 42.8719 87.3886C42.3977 87.3886 42.1999 87.0535 42.1999 86.5774V82.3611C42.1999 81.8859 42.3919 81.5499 42.8719 81.5499C43.3519 81.5499 43.5084 81.8273 43.5084 82.3179V83.3479H44.7113V82.4177C44.7113 81.2657 44.3061 80.4497 42.8489 80.4497C41.4597 80.4497 40.8809 81.3415 40.8809 82.5684V86.3662Z" fill="#C5192D"/>
<path d="M46.5955 86.9553H47.999L48.2419 88.3953H49.5926L48.0998 80.5464H46.5955L45.1133 88.3953H46.3613L46.5955 86.9553ZM47.2886 82.7534H47.3002L47.8214 85.9022H46.7654L47.2886 82.7534Z" fill="#C5192D"/>
<path d="M49.4297 81.6201H50.5164V88.3919H51.8479V81.6201H52.9346V80.543H49.4297V81.6201Z" fill="#C5192D"/>
<path d="M54.9841 80.543H53.6641V88.3929H54.9841V80.543Z" fill="#C5192D"/>
<path d="M57.8534 88.4849C59.2521 88.4849 59.853 87.5825 59.853 86.3652V82.5684C59.853 81.3416 59.2521 80.4507 57.8534 80.4507C56.4546 80.4507 55.8633 81.3416 55.8633 82.5684V86.3652C55.8633 87.5825 56.4642 88.4849 57.8534 88.4849ZM57.1814 82.3601C57.1814 81.8859 57.3897 81.5508 57.8534 81.5508C58.317 81.5508 58.5359 81.8859 58.5359 82.3601V86.5736C58.5359 87.0536 58.3276 87.3848 57.8534 87.3848C57.3791 87.3848 57.1814 87.0497 57.1814 86.5736V82.3601Z" fill="#C5192D"/>
<path d="M61.8344 83.4594L63.3857 88.3938H64.5435V80.542H63.4433V85.0463L62.0196 80.542H60.7246V88.3938H61.8344V83.4594Z" fill="#C5192D"/>
<path d="M15.0377 88.4014H18.1203V85.2612H19.4345V82.7211H18.1203V69.0449H14.9225L9.29883 83.2625V85.2612H15.0377V88.4014ZM12.1577 82.7211L15.0694 74.7531H15.0982V82.7211H12.1577Z" fill="#C5192D"/>
<path d="M42.078 112.474L24.8613 102.533V134.693L42.078 139.887V112.474Z" fill="#C5192D"/>
<path d="M43.9707 112.54V139.899L61.2987 134.689V102.534L43.9707 112.54Z" fill="#C5192D"/>
<path d="M74.8159 101.719C74.8218 101.447 74.7735 101.178 74.6738 100.926C74.5741 100.673 74.425 100.443 74.2353 100.25C74.0456 100.056 73.8191 99.9017 73.5691 99.7965C73.3191 99.6914 73.0505 99.6372 72.7793 99.6372C72.5081 99.6372 72.2396 99.6914 71.9895 99.7965C71.7395 99.9017 71.513 100.056 71.3233 100.25C71.1336 100.443 70.9845 100.673 70.8848 100.926C70.7851 101.178 70.7368 101.447 70.7427 101.719V103.912H74.8159V101.719Z" fill="#C5192D"/>
<path d="M71.2471 134.123H70.7412L72.7793 141.242L74.8135 134.123H74.3076H74.8135V105.51H74.3076H73.8017H73.266H72.2522H71.7521H71.2471H70.7402V134.123H71.2471Z" fill="#C5192D"/>
<path d="M64.998 103.914L63.152 102.456V135.565L44.022 141.747H43.1369H42.9612H42.0771L23.0326 136.426V102.456L21.1855 103.914V137.721L41.9897 143.481H42.9612H43.1369H44.1084L63.3027 137.387L64.998 136.887V103.914Z" fill="#C5192D"/>
</svg>
