<svg width="154" height="39" viewBox="0 0 154 39" fill="none" xmlns="http://www.w3.org/2000/svg">
<path d="M4.7627 29C4.0227 29 3.6527 28.63 3.6527 27.89V10.1C3.6527 9.36 4.0227 8.99 4.7627 8.99C5.4927 8.99 5.8577 9.36 5.8577 10.1V17.72L13.9277 9.41C14.4377 8.87 14.9527 8.86 15.4727 9.38C16.0127 9.89 16.0227 10.41 15.5027 10.94L9.0077 17.63L16.6577 27.125C17.1077 27.705 17.0577 28.22 16.5077 28.67C15.9377 29.14 15.4227 29.09 14.9627 28.52L7.4627 19.235L5.8577 20.885V27.89C5.8577 28.63 5.4927 29 4.7627 29ZM22.0186 29C21.2786 29 20.9086 28.63 20.9086 27.89V15.23C20.9086 14.5 21.2786 14.135 22.0186 14.135C22.7486 14.135 23.1136 14.5 23.1136 15.23V16.04C24.1336 14.77 25.7486 14.135 27.9586 14.135H28.7986C30.7486 14.135 32.1886 14.6 33.1186 15.53C34.0486 16.46 34.5136 17.9 34.5136 19.85V27.89C34.5136 28.63 34.1486 29 33.4186 29C32.6786 29 32.3086 28.63 32.3086 27.89V19.85C32.3086 18.5 32.0536 17.58 31.5436 17.09C31.0436 16.59 30.1286 16.34 28.7986 16.34H27.9586C26.6386 16.34 25.5336 16.515 24.6436 16.865C23.7536 17.205 23.2436 17.745 23.1136 18.485V27.89C23.1136 28.63 22.7486 29 22.0186 29ZM78.7607 29C78.1607 29 77.7657 28.7 77.5757 28.1L73.3757 15.59C73.1457 14.91 73.3807 14.45 74.0807 14.21C74.7707 13.98 75.2357 14.215 75.4757 14.915L79.1057 25.67H78.7607L82.1957 14.99C82.3957 14.41 82.8157 14.12 83.4557 14.12C84.0757 14.12 84.4707 14.425 84.6407 15.035L87.8657 25.58H87.5657L91.3157 14.9C91.5757 14.19 92.0457 13.96 92.7257 14.21C93.4257 14.46 93.6457 14.935 93.3857 15.635L88.8107 28.1C88.5907 28.7 88.1707 29 87.5507 29C86.9107 29 86.5007 28.695 86.3207 28.085L83.1257 17.57H83.4407L79.9457 28.1C79.8557 28.41 79.7057 28.64 79.4957 28.79C79.2857 28.93 79.0407 29 78.7607 29ZM103.642 29C101.712 29 100.292 28.545 99.382 27.635C98.472 26.725 98.017 25.31 98.017 23.39V16.34H96.442C95.702 16.34 95.332 15.97 95.332 15.23C95.332 14.5 95.702 14.135 96.442 14.135H98.017V11.6C98.017 10.86 98.382 10.49 99.112 10.49C99.852 10.49 100.222 10.86 100.222 11.6V14.135H103.777C104.507 14.135 104.872 14.5 104.872 15.23C104.872 15.97 104.507 16.34 103.777 16.34H100.222V23.39C100.222 24.71 100.462 25.61 100.942 26.09C101.432 26.56 102.332 26.795 103.642 26.795C104.002 26.795 104.277 26.885 104.467 27.065C104.657 27.235 104.752 27.51 104.752 27.89C104.752 28.63 104.382 29 103.642 29ZM110.119 11.585C109.259 11.585 108.829 11.145 108.829 10.265V9.455C108.829 8.595 109.259 8.165 110.119 8.165H110.929C111.759 8.165 112.174 8.595 112.174 9.455V10.265C112.174 11.145 111.759 11.585 110.929 11.585H110.119ZM110.524 29C109.784 29 109.414 28.63 109.414 27.89V15.23C109.414 14.5 109.784 14.135 110.524 14.135C111.254 14.135 111.619 14.5 111.619 15.23V27.89C111.619 28.63 111.254 29 110.524 29ZM119.222 29C118.482 29 118.112 28.63 118.112 27.89V16.34H116.957C116.217 16.34 115.847 15.97 115.847 15.23C115.847 14.5 116.217 14.135 116.957 14.135H118.112V13.61C118.112 11.69 118.572 10.275 119.492 9.365C120.412 8.445 121.832 7.985 123.752 7.985C124.402 7.985 124.727 8.35 124.727 9.08C124.727 9.82 124.402 10.19 123.752 10.19C122.442 10.19 121.542 10.43 121.052 10.91C120.562 11.39 120.317 12.29 120.317 13.61V14.135H123.617C124.357 14.135 124.727 14.5 124.727 15.23C124.727 15.97 124.357 16.34 123.617 16.34H120.317V27.89C120.317 28.63 119.952 29 119.222 29ZM127.522 28.895C126.822 28.615 126.612 28.13 126.892 27.44L134.137 9.86C134.387 9.28 134.797 8.99 135.367 8.99H135.442C136.012 9.02 136.402 9.31 136.612 9.86L143.932 27.44C144.212 28.13 144.012 28.615 143.332 28.895C142.642 29.165 142.162 28.965 141.892 28.295L140.137 24.095H130.642L128.947 28.295C128.667 28.975 128.192 29.175 127.522 28.895ZM131.512 21.89H139.237L135.322 12.485L131.512 21.89ZM149.255 29C148.885 29 148.605 28.91 148.415 28.73C148.235 28.54 148.145 28.26 148.145 27.89V10.115C148.145 9.735 148.235 9.455 148.415 9.275C148.605 9.095 148.885 9.005 149.255 9.005C149.625 9.005 149.9 9.095 150.08 9.275C150.26 9.455 150.35 9.735 150.35 10.115V27.89C150.35 28.26 150.26 28.54 150.08 28.73C149.9 28.91 149.625 29 149.255 29Z" fill="black"/>
<path fill-rule="evenodd" clip-rule="evenodd" d="M55.3438 36.5625C64.6463 36.5625 72.1875 28.9234 72.1875 19.5C72.1875 10.0766 64.6463 2.4375 55.3438 2.4375C46.0412 2.4375 38.5 10.0766 38.5 19.5C38.5 28.9234 46.0412 36.5625 55.3438 36.5625ZM67.8951 15.9323V14.1923C67.8951 9.66459 62.3187 5.8738 55.4648 5.74231C51.9321 5.69033 48.651 6.49252 46.1425 8.04186C44.9058 8.79953 43.9232 9.70865 43.2541 10.7144C42.585 11.7201 42.2431 12.8016 42.2491 13.8937V15.9323C40.4812 15.9323 39.0434 16.8466 39.0434 17.9709V22.0481C39.0434 23.1724 40.4812 24.0867 42.2491 24.0867H45.2604C45.3466 25.4258 45.8976 26.6924 46.818 27.6473C47.8229 28.6899 49.1859 29.2756 50.6071 29.2756C50.7946 29.2664 50.9822 29.2571 51.1697 29.2293L53.8133 31.9721L55.0725 33.26L56.3318 31.9721L58.9754 29.2293C59.1629 29.2571 59.3505 29.2664 59.538 29.2756C60.9592 29.2756 62.3222 28.6899 63.3271 27.6473C64.2475 26.6924 64.7985 25.4258 64.8847 24.0867H67.8951C69.6631 24.0867 71.1009 23.1724 71.1009 22.0481V17.9709C71.1009 16.8466 69.6631 15.9323 67.8951 15.9323ZM45.4549 13.8937V22.202C45.5301 21.9307 45.6253 21.6633 45.7397 21.3995L45.8129 21.2232C46.8446 18.7418 47.8914 16.2238 46.3559 12.8747C48.7137 14.7835 52.0717 16.2939 55.0725 16.3032C58.0733 16.2939 61.4314 14.7835 63.7892 12.8747C62.2537 16.2238 63.3005 18.7418 64.3322 21.2232L64.4054 21.3995C64.5194 21.6624 64.6143 21.9287 64.6894 22.199V14.1923C64.6894 10.7552 60.5091 7.87877 55.3671 7.78092C54.079 7.75433 52.7958 7.89329 51.5941 8.18945C50.3925 8.48562 49.2972 8.93291 48.3737 9.50456C47.4464 10.0729 46.7097 10.7548 46.208 11.5092C45.7064 12.2635 45.4502 13.0747 45.4549 13.8937ZM55.0725 26.7738C55.5727 27.5522 56.2425 28.1915 57.0374 28.627L55.0725 30.6655L53.1077 28.627C53.9026 28.1915 54.5813 27.5522 55.0725 26.7738ZM59.538 22.3261C59.0643 22.3261 58.61 22.5214 58.275 22.8689C57.94 23.2164 57.7518 23.6878 57.7518 24.1793C57.7518 24.6708 57.94 25.1422 58.275 25.4897C58.61 25.8373 59.0643 26.0325 59.538 26.0325C60.0118 26.0325 60.4661 25.8373 60.8011 25.4897C61.136 25.1422 61.3242 24.6708 61.3242 24.1793C61.3242 23.6878 61.136 23.2164 60.8011 22.8689C60.4661 22.5214 60.0118 22.3261 59.538 22.3261ZM50.6071 22.3261C50.1333 22.3261 49.679 22.5214 49.344 22.8689C49.0091 23.2164 48.8209 23.6878 48.8209 24.1793C48.8209 24.6708 49.0091 25.1422 49.344 25.4897C49.679 25.8373 50.1333 26.0325 50.6071 26.0325C51.0808 26.0325 51.5351 25.8373 51.8701 25.4897C52.2051 25.1422 52.3933 24.6708 52.3933 24.1793C52.3933 23.6878 52.2051 23.2164 51.8701 22.8689C51.5351 22.5214 51.0808 22.3261 50.6071 22.3261ZM59.538 20.0096C60.4855 20.0096 61.3941 20.4001 62.0641 21.0952C62.734 21.7903 63.1104 22.733 63.1104 23.716C63.1104 24.699 62.734 25.6418 62.0641 26.3368C61.3941 27.0319 60.4855 27.4224 59.538 27.4224C58.5906 27.4224 57.6819 27.0319 57.012 26.3368C56.342 25.6418 55.9656 24.699 55.9656 23.716C55.9656 22.733 56.342 21.7903 57.012 21.0952C57.6819 20.4001 58.5906 20.0096 59.538 20.0096ZM50.6071 20.0096C51.5545 20.0096 52.4632 20.4001 53.1331 21.0952C53.8031 21.7903 54.1795 22.733 54.1795 23.716C54.1795 24.699 53.8031 25.6418 53.1331 26.3368C52.4632 27.0319 51.5545 27.4224 50.6071 27.4224C49.6596 27.4224 48.751 27.0319 48.081 26.3368C47.4111 25.6418 47.0347 24.699 47.0347 23.716C47.0347 22.733 47.4111 21.7903 48.081 21.0952C48.751 20.4001 49.6596 20.0096 50.6071 20.0096Z" fill="#821676"/>
</svg>
